<svg xmlns="http://www.w3.org/2000/svg" version="1.1" viewBox="359.17 281.07 542.62 660.93">
	<path d="M 585 282.538583751841 C 524.394966549395 291.0392383003505, 470.2735841366542 317.57401217795416, 428.8709794677486 359.08593104538954 C 374.17152707075917 413.9298049551464, 349.02563223559133 488.984431320413, 362.94265605616795 555.8665870125135 C 371.84720853444213 598.6599078330078, 397.5937505425145 638.4908368809926, 431.5 661.9275369252784 C 444.0531376512797 670.6045249866261, 464.72558151065897 680.6077518227379, 466.4795012755736 678.8538320577658 C 466.7361348834999 678.5971984498311, 465.3953636758533 673.0125997608606, 463.5000097030256 666.4436127489423 C 455.3977290989175 638.3624327591693, 454.1213032456923 604.0023752396005, 460.121587579246 575.5 C 476.7403985891585 496.5578097454939, 535.1838894501178 440.5212284389895, 611.3012163809192 430.5464827402843 C 620.505469880742 429.34031731502427, 633.4889459088926 428.99911507343575, 670.3012163809192 428.9959786834297 C 723.1563837934101 428.99147544533236, 728.7137210190301 428.513934605844, 747 422.405268055264 C 794.9136749272982 406.39935106972837, 833.4631070340118 363.4569467029856, 847.9063025983992 310 C 849.976524919673 302.3377230614717, 853 286.2335326023819, 853 282.8690096934821 C 853 281.0527722319441, 849.3505748511816 281.0029094257487, 723.75 281.1030417840312 C 621.954184832119 281.18419630938365, 592.4820908634033 281.48912191494276, 585 282.538583751841 M 609.3083587300225 525.5585151396219 C 581.7524774389732 531.6009323809271, 556.7688133957397 552.7971630961132, 546.5907930854535 578.7683241170666 C 538.9746937688802 598.2022548493918, 538.7861323694754 620.8089439415534, 546.0754736614833 640.5501418041343 C 555.3959762798485 665.7921875524349, 578.677253119957 686.792838318944, 605.5 694.1534614661582 C 616.7726788953164 697.2468784669992, 637.0170283093227 697.2365154344478, 648.5 694.1314498721774 C 687.5983878860679 683.5590073864151, 714 649.0590763633911, 714 608.5402567186495 C 714 570.5236813412047, 685.2669967411754 535.22563977536, 646.8178874186285 526.0080904491806 C 636.971866919507 523.6476669903202, 619.0046785995622 523.4323189298874, 609.3083587300225 525.5585151396219 M 793.2590662799396 561.2327326126831 C 793.582420117532 562.0753792061354, 795.2169434513745 567.8802334292394, 796.8913403551451 574.1324086640254 C 819.3668613066224 658.0556977989335, 774.3802111823146 747.8022676626339, 693.4863018848814 780.421329570268 C 667.7641220623215 790.7933511886872, 657.8535575706476 791.9974890255703, 593.5054137924983 792.5690503603761 C 564.3583913783724 792.8279437807375, 537.5833913783724 793.5037644552029, 534.0054137924983 794.0708740814105 C 473.0431424667017 803.7333971337708, 423.10116242918417 853.9504176506247, 408.6878084901857 920.0786285168921 C 407.31863265548407 926.3603828326014, 405.9499600702166 933.8625, 405.6463138562581 936.75 L 405.09422983087893 942 538.7971149154395 941.9917951673693 C 623.4570125167621 941.9865999145526, 675.801251779795 941.6079109029504, 681.5 940.9593985700303 C 764.1224639968452 931.5570377694203, 840.1876044111214 880.2901796542264, 878.7731642516967 808 C 896.2663600928245 775.2264371618137, 904.136628482094 738.0934581973017, 901.183729582067 702.263955200046 C 897.7210007310294 660.2483434411051, 882.91692163448 627.8162648331423, 854.0383399822304 598.9800581380991 C 839.4892516938369 584.4523184395025, 827.490742207131 575.6630651235497, 810.5701311607022 567.1383448864278 C 797.1892148289335 560.3969471950758, 792.2980403884785 558.7283392840352, 793.2590662799396 561.2327326126831" stroke="none" fill-rule="evenodd" data-fill-layer-id="trace-color" style="fill:#000000" data-layer-color="#000000" fill="#000000"/>
</svg>