<?xml version="1.0"?>

<svg version="1.0" xmlns="http://www.w3.org/2000/svg" width="1000.000000pt" height="1000.000000pt" viewBox="0 0 1000.000000 1000.000000" preserveAspectRatio="xMidYMid meet">

<g transform="translate(0.000000,1000.000000) scale(0.100000,-0.100000)" fill="#000000" stroke="none">
<path d="M4475 9963 c-163 -7 -409 -47 -705 -113 -170 -38 -456 -134 -619&#xA;-207 -116 -52 -349 -168 -415 -207 -43 -25 -80 -46 -82 -46 -5 0 -160 -102&#xA;-179 -118 -6 -5 -24 -17 -40 -27 -48 -31 -226 -164 -280 -211 -200 -171 -263&#xA;-231 -335 -314 -12 -14 -47 -52 -78 -85 -32 -33 -71 -78 -87 -100 -16 -22 -36&#xA;-47 -45 -55 -9 -8 -38 -46 -65 -85 -27 -38 -53 -71 -57 -73 -4 -2 -8 -10 -8&#xA;-18 0 -8 -4 -14 -10 -14 -5 0 -10 -7 -10 -15 0 -8 -4 -15 -10 -15 -5 0 -10 -6&#xA;-10 -14 0 -8 -3 -16 -7 -18 -11 -4 -63 -86 -63 -98 0 -5 -4 -10 -10 -10 -5 0&#xA;-10 -5 -10 -11 0 -6 -13 -29 -28 -52 -31 -45 -43 -68 -104 -192 -70 -141 -110&#xA;-232 -145 -323 -91 -242 -136 -409 -172 -632 -6 -36 -16 -99 -23 -140 -18&#xA;-103 -18 -598 0 -700 7 -41 18 -102 23 -135 30 -180 79 -352 149 -526 38 -94&#xA;148 -327 160 -339 3 -3 12 -18 20 -35 13 -28 137 -214 150 -225 3 -3 18 -23&#xA;35 -45 16 -22 34 -45 40 -51 5 -7 24 -29 42 -50 83 -102 238 -244 373 -342 36&#xA;-25 67 -49 70 -52 3 -3 16 -11 30 -19 14 -8 52 -30 85 -49 33 -19 70 -40 82&#xA;-46 13 -6 23 -14 23 -18 0 -5 6 -8 13 -8 12 0 99 -37 139 -60 10 -6 27 -10 37&#xA;-10 11 0 23 -4 26 -10 3 -5 18 -10 33 -10 20 0 23 3 14 12 -7 7 -12 21 -12 32&#xA;0 18 -12 62 -30 111 -4 11 -12 38 -18 60 -6 22 -15 58 -21 80 -10 40 -21 105&#xA;-44 260 -15 104 -15 623 0 735 18 135 33 221 44 265 6 22 15 58 21 80 5 22 14&#xA;50 19 63 5 13 9 32 9 43 0 10 4 27 9 37 5 9 21 58 36 107 15 50 40 117 55 150&#xA;15 33 36 80 46 105 35 85 145 293 185 352 11 14 19 29 19 32 0 4 5 12 10 19 6&#xA;7 32 41 58 77 25 36 49 67 52 70 3 3 28 35 55 72 52 70 281 302 374 378 29 25&#xA;79 63 110 85 31 22 64 47 74 56 10 9 36 24 57 34 22 10 40 22 40 27 0 4 5 8&#xA;11 8 6 0 29 13 52 29 67 45 347 178 399 188 15 3 31 10 34 14 3 5 16 9 29 9&#xA;13 0 27 5 30 10 3 6 17 10 30 10 13 0 26 4 29 9 3 5 16 11 28 14 13 3 41 10&#xA;63 16 113 30 239 53 400 73 44 5 422 13 840 18 424 4 787 12 820 18 172 29&#xA;276 53 350 83 11 4 49 18 85 30 71 24 201 83 240 109 14 9 50 30 80 46 168 87&#xA;478 353 605 518 17 21 35 44 41 50 23 25 163 235 190 286 16 30 31 57 34 60 6&#xA;5 45 86 82 170 11 25 28 63 38 85 34 74 93 249 106 315 3 14 9 34 14 45 5 11&#xA;11 36 15 55 3 19 10 58 15 85 21 113 36 225 32 230 -5 5 -3678 4 -3787 -2z"></path>
<path d="M4876 6789 c-2 -8 -48 -248 -101 -534 -53 -286 -98 -521 -100 -524&#xA;-3 -2 -24 17 -47 43 -196 213 -704 742 -706 737 -1 -4 88 -231 198 -505 111&#xA;-274 199 -500 197 -503 -3 -2 -240 55 -527 127 -287 72 -524 129 -526 127 -2&#xA;-2 194 -144 436 -316 242 -172 440 -316 440 -320 0 -4 -228 -85 -507 -180&#xA;-280 -96 -511 -177 -516 -180 -4 -4 199 -15 450 -25 252 -11 500 -22 550 -25&#xA;l93 -6 -341 -428 c-187 -236 -339 -430 -337 -432 2 -1 214 121 472 272 258&#xA;150 471 271 474 269 4 -5 -92 -1005 -103 -1071 -3 -17 -2 -25 4 -20 4 6 118&#xA;227 252 492 134 266 246 483 249 483 3 0 117 -220 255 -489 137 -269 251 -489&#xA;252 -487 1 1 -22 247 -52 546 -30 299 -53 546 -51 548 3 2 214 -119 471 -268&#xA;256 -150 468 -271 470 -268 2 2 -147 192 -330 423 -184 231 -335 423 -335 426&#xA;0 8 125 15 659 36 354 14 439 20 416 29 -15 6 -249 87 -521 180 -272 93 -493&#xA;172 -491 176 1 4 202 149 446 323 243 173 438 315 432 315 -6 0 -246 -59 -532&#xA;-130 -287 -72 -523 -129 -525 -128 -1 2 87 226 197 498 109 272 197 499 196&#xA;504 -2 5 -169 -167 -372 -382 -204 -216 -372 -392 -375 -392 -3 0 -50 240&#xA;-104 533 -54 292 -100 534 -102 536 -2 2 -6 -2 -8 -10z"></path>
<path d="M7431 5728 c30 -98 61 -220 70 -273 5 -33 14 -87 20 -120 50 -307 45&#xA;-586 -16 -935 -21 -119 -92 -362 -107 -368 -4 -2 -8 -12 -8 -23 0 -11 -4 -27&#xA;-9 -37 -5 -9 -22 -48 -37 -87 -58 -144 -227 -450 -256 -463 -5 -2 -8 -8 -8&#xA;-13 0 -11 -114 -161 -174 -228 -52 -58 -187 -194 -246 -246 -248 -223 -636&#xA;-444 -935 -536 -22 -6 -49 -15 -60 -20 -22 -8 -40 -13 -140 -35 -85 -19 -163&#xA;-32 -270 -46 -44 -6 -446 -14 -895 -18 -483 -4 -839 -12 -875 -18 -138 -24&#xA;-317 -71 -390 -101 -11 -5 -36 -14 -55 -21 -64 -22 -231 -99 -240 -110 -3 -3&#xA;-21 -13 -40 -23 -40 -18 -179 -107 -225 -143 -16 -14 -35 -28 -40 -32 -149&#xA;-108 -366 -338 -501 -532 -32 -47 -62 -86 -66 -88 -5 -2 -8 -8 -8 -13 0 -6&#xA;-15 -33 -33 -62 -40 -64 -108 -201 -174 -357 -8 -19 -19 -44 -24 -55 -4 -11&#xA;-20 -58 -34 -105 -14 -47 -30 -99 -35 -116 -6 -17 -10 -40 -10 -52 0 -11 -4&#xA;-23 -9 -26 -5 -3 -11 -23 -15 -43 -3 -21 -10 -67 -16 -103 -6 -36 -13 -100&#xA;-16 -143 l-6 -77 1938 4 c1162 3 1989 8 2064 14 176 14 333 36 495 68 44 9 95&#xA;18 113 21 18 3 35 9 38 14 3 5 16 9 29 9 13 0 34 4 47 9 13 5 64 21 113 36&#xA;133 39 159 48 169 57 6 4 20 8 33 8 13 0 23 5 23 10 0 6 7 10 15 10 8 0 23 4&#xA;33 9 9 6 51 22 92 37 41 15 79 31 84 35 6 5 18 9 27 9 10 0 19 4 21 8 3 9 194&#xA;102 208 102 6 0 10 3 10 8 0 4 15 14 33 21 17 8 55 30 84 48 29 18 57 33 63&#xA;33 5 0 10 5 10 10 0 6 4 10 10 10 10 0 178 106 196 125 7 6 36 27 66 46 29 18&#xA;55 36 58 39 3 3 43 37 90 75 47 39 94 78 105 88 11 10 38 33 59 50 91 75 307&#xA;304 427 453 84 105 218 299 281 404 80 136 216 423 253 535 20 61 40 119 44&#xA;130 5 11 14 40 21 65 7 25 16 56 21 70 13 41 51 230 60 305 35 289 41 454 21&#xA;650 -15 148 -41 300 -68 409 -9 34 -18 73 -21 89 -3 15 -9 30 -14 33 -5 3 -9&#xA;14 -9 25 0 10 -4 27 -9 37 -15 27 -81 207 -81 219 0 6 -3 13 -7 15 -5 2 -22&#xA;30 -39 63 -44 87 -88 169 -94 175 -3 3 -9 13 -15 22 -12 20 -86 129 -97 143&#xA;-149 190 -322 371 -426 450 -30 22 -63 48 -74 58 -104 87 -373 241 -508 291&#xA;-41 15 -83 31 -92 37 -26 14 -27 12 -17 -23z"></path>
</g>
</svg>